<svg width="565" height="149" viewBox="0 0 565 149" fill="none" xmlns="http://www.w3.org/2000/svg">
<circle cx="133" cy="75" r="14" fill="#8A4B3A"/>
<path d="M178.225 59.63C175.885 59.63 173.695 59.285 171.655 58.595C169.615 57.875 167.815 56.87 166.255 55.58C164.695 54.26 163.48 52.685 162.61 50.855C161.74 49.025 161.305 47 161.305 44.78C161.305 42.71 161.71 40.745 162.52 38.885C163.36 36.995 164.575 35.33 166.165 33.89C167.755 32.42 169.66 31.265 171.88 30.425C174.13 29.555 176.665 29.12 179.485 29.12C180.445 29.12 181.405 29.195 182.365 29.345C183.355 29.465 184.3 29.645 185.2 29.885C186.13 30.125 186.97 30.38 187.72 30.65C187.99 30.77 188.215 30.935 188.395 31.145C188.605 31.325 188.725 31.595 188.755 31.955C188.875 32.945 188.965 33.905 189.025 34.835C189.085 35.765 189.115 36.605 189.115 37.355C189.115 37.685 188.995 37.91 188.755 38.03C188.515 38.15 188.245 38.165 187.945 38.075C187.675 37.955 187.48 37.715 187.36 37.355C187.15 36.665 186.895 35.975 186.595 35.285C186.325 34.595 185.905 33.995 185.335 33.485C184.735 32.885 183.895 32.39 182.815 32C181.765 31.61 180.49 31.415 178.99 31.415C177.46 31.415 176.065 31.745 174.805 32.405C173.575 33.065 172.51 33.965 171.61 35.105C170.74 36.245 170.065 37.535 169.585 38.975C169.105 40.415 168.865 41.915 168.865 43.475C168.865 45.455 169.075 47.3 169.495 49.01C169.915 50.69 170.56 52.145 171.43 53.375C172.3 54.605 173.365 55.565 174.625 56.255C175.885 56.945 177.37 57.29 179.08 57.29C181.3 57.29 183.1 56.825 184.48 55.895C185.86 54.935 187.015 53.48 187.945 51.53C188.185 50.99 188.515 50.735 188.935 50.765C189.385 50.795 189.61 51.05 189.61 51.53C189.61 51.92 189.565 52.4 189.475 52.97C189.415 53.51 189.31 54.095 189.16 54.725C189.01 55.355 188.83 56 188.62 56.66C188.5 57.02 188.335 57.305 188.125 57.515C187.945 57.695 187.705 57.86 187.405 58.01C186.265 58.49 184.915 58.88 183.355 59.18C181.795 59.48 180.085 59.63 178.225 59.63ZM213.189 59.63C210.369 59.63 208.014 59.135 206.124 58.145C204.234 57.125 202.809 55.715 201.849 53.915C200.919 52.115 200.454 50.015 200.454 47.615V34.79C200.454 33.95 200.259 33.185 199.869 32.495C199.479 31.805 198.909 31.37 198.159 31.19C197.319 30.95 196.899 30.62 196.899 30.2C196.899 29.99 197.004 29.825 197.214 29.705C197.454 29.585 197.739 29.525 198.069 29.525C199.029 29.525 200.019 29.57 201.039 29.66C202.059 29.72 203.019 29.75 203.919 29.75C204.759 29.75 205.764 29.72 206.934 29.66C208.134 29.6 209.154 29.57 209.994 29.57C210.354 29.57 210.639 29.63 210.849 29.75C211.089 29.84 211.209 30.005 211.209 30.245C211.209 30.575 210.984 30.815 210.534 30.965C210.084 31.115 209.604 31.31 209.094 31.55C208.644 31.73 208.254 32.105 207.924 32.675C207.594 33.215 207.429 33.995 207.429 35.015V46.805C207.429 48.845 207.759 50.525 208.419 51.845C209.079 53.165 209.949 54.14 211.029 54.77C212.139 55.4 213.369 55.715 214.719 55.715C217.449 55.715 219.474 54.905 220.794 53.285C222.144 51.665 222.819 49.19 222.819 45.86C222.819 45.08 222.819 44.21 222.819 43.25C222.849 42.26 222.864 41.255 222.864 40.235C222.864 39.185 222.849 38.195 222.819 37.265C222.789 35.915 222.684 34.865 222.504 34.115C222.354 33.365 222.114 32.78 221.784 32.36C221.454 31.94 221.004 31.595 220.434 31.325C220.104 31.145 219.714 30.995 219.264 30.875C218.844 30.725 218.634 30.515 218.634 30.245C218.634 30.005 218.754 29.84 218.994 29.75C219.234 29.66 219.564 29.615 219.984 29.615C221.064 29.615 221.874 29.63 222.414 29.66C222.984 29.69 223.614 29.705 224.304 29.705C224.874 29.705 225.339 29.69 225.699 29.66C226.089 29.63 226.479 29.6 226.869 29.57C227.289 29.54 227.784 29.525 228.354 29.525C228.714 29.525 228.999 29.57 229.209 29.66C229.419 29.75 229.524 29.93 229.524 30.2C229.524 30.59 229.119 30.905 228.309 31.145C227.319 31.415 226.614 31.88 226.194 32.54C225.804 33.17 225.579 34.025 225.519 35.105C225.429 37.385 225.369 39.485 225.339 41.405C225.309 43.295 225.294 45.23 225.294 47.21C225.264 49.64 224.709 51.8 223.629 53.69C222.579 55.55 221.139 57.005 219.309 58.055C217.479 59.105 215.439 59.63 213.189 59.63ZM236.28 59.225C235.98 59.225 235.74 59.15 235.56 59C235.41 58.88 235.335 58.73 235.335 58.55C235.335 58.1 235.665 57.785 236.325 57.605C237.345 57.335 238.065 57.02 238.485 56.66C238.935 56.3 239.16 55.64 239.16 54.68V34.205C239.16 33.245 238.965 32.555 238.575 32.135C238.185 31.715 237.45 31.385 236.37 31.145C235.98 31.055 235.71 30.935 235.56 30.785C235.41 30.605 235.335 30.41 235.335 30.2C235.335 30.02 235.425 29.87 235.605 29.75C235.785 29.6 236.025 29.525 236.325 29.525C237.075 29.525 237.84 29.54 238.62 29.57C239.4 29.6 240.165 29.645 240.915 29.705C241.665 29.735 242.385 29.75 243.075 29.75C244.635 29.75 246.3 29.735 248.07 29.705C249.84 29.675 251.415 29.645 252.795 29.615C253.755 29.615 254.55 29.57 255.18 29.48C255.81 29.36 256.185 29.3 256.305 29.3C256.515 29.3 256.74 29.375 256.98 29.525C257.25 29.645 257.4 29.855 257.43 30.155C257.55 31.235 257.7 32.285 257.88 33.305C258.06 34.325 258.15 35.225 258.15 36.005C258.15 36.275 258.09 36.485 257.97 36.635C257.85 36.785 257.715 36.86 257.565 36.86C257.415 36.86 257.25 36.8 257.07 36.68C256.92 36.56 256.8 36.38 256.71 36.14C256.41 35.39 256.14 34.745 255.9 34.205C255.66 33.665 255.39 33.23 255.09 32.9C254.73 32.57 254.295 32.255 253.785 31.955C253.275 31.655 252.63 31.505 251.85 31.505H248.475C247.815 31.505 247.245 31.685 246.765 32.045C246.285 32.375 246.045 32.855 246.045 33.485V41.99C246.045 42.35 246.15 42.62 246.36 42.8C246.57 42.98 246.84 43.07 247.17 43.07H251.13C251.91 43.07 252.465 42.815 252.795 42.305C253.155 41.765 253.47 41.12 253.74 40.37C253.95 39.8 254.25 39.515 254.64 39.515C254.79 39.515 254.925 39.605 255.045 39.785C255.165 39.935 255.21 40.175 255.18 40.505C255.15 40.865 255.12 41.255 255.09 41.675C255.06 42.095 255.03 42.515 255 42.935C255 43.355 255 43.76 255 44.15C255 44.51 255 44.9 255 45.32C255.03 45.74 255.045 46.16 255.045 46.58C255.075 47 255.105 47.405 255.135 47.795C255.195 48.215 255.18 48.53 255.09 48.74C255 48.92 254.865 49.01 254.685 49.01C254.205 49.01 253.86 48.62 253.65 47.84C253.38 46.94 253.08 46.25 252.75 45.77C252.42 45.29 251.955 45.05 251.355 45.05H247.17C246.81 45.05 246.525 45.14 246.315 45.32C246.135 45.47 246.045 45.725 246.045 46.085V54.635C246.045 55.535 246.24 56.165 246.63 56.525C247.02 56.885 247.62 57.065 248.43 57.065H252.3C252.96 57.065 253.59 56.99 254.19 56.84C254.79 56.69 255.3 56.435 255.72 56.075C256.23 55.655 256.695 55.13 257.115 54.5C257.535 53.87 257.925 53.195 258.285 52.475C258.405 52.265 258.525 52.13 258.645 52.07C258.795 51.98 258.96 51.935 259.14 51.935C259.29 51.935 259.395 52.025 259.455 52.205C259.545 52.385 259.59 52.58 259.59 52.79C259.59 53.3 259.515 53.87 259.365 54.5C259.215 55.13 259.02 55.805 258.78 56.525C258.57 57.215 258.36 57.905 258.15 58.595C258.09 58.805 257.955 58.955 257.745 59.045C257.565 59.135 257.37 59.18 257.16 59.18C256.77 59.18 256.035 59.165 254.955 59.135C253.905 59.135 252.66 59.12 251.22 59.09C249.78 59.06 248.295 59.03 246.765 59C245.235 59 243.81 59 242.49 59C241.89 59 241.23 59.015 240.51 59.045C239.79 59.075 239.055 59.105 238.305 59.135C237.585 59.195 236.91 59.225 236.28 59.225ZM266.483 59.135C266.243 59.135 266.033 59.09 265.853 59C265.673 58.88 265.583 58.715 265.583 58.505C265.583 58.025 265.898 57.71 266.528 57.56C267.668 57.32 268.448 57.02 268.868 56.66C269.318 56.27 269.543 55.58 269.543 54.59V34.43C269.543 33.41 269.363 32.675 269.003 32.225C268.643 31.745 267.923 31.385 266.843 31.145C266.453 31.055 266.183 30.935 266.033 30.785C265.883 30.605 265.808 30.41 265.808 30.2C265.808 30.02 265.898 29.87 266.078 29.75C266.258 29.6 266.498 29.525 266.798 29.525C267.488 29.525 268.178 29.54 268.868 29.57C269.588 29.6 270.278 29.645 270.938 29.705C271.628 29.735 272.273 29.75 272.873 29.75C273.593 29.75 274.223 29.72 274.763 29.66C275.333 29.57 275.948 29.495 276.608 29.435C277.298 29.345 278.123 29.3 279.083 29.3C282.743 29.3 285.638 30.08 287.768 31.64C289.928 33.17 291.008 35.285 291.008 37.985C291.008 39.875 290.603 41.615 289.793 43.205C289.013 44.795 287.813 46.085 286.193 47.075C284.603 48.035 282.578 48.515 280.118 48.515C279.338 48.515 278.738 48.395 278.318 48.155C277.928 47.915 277.733 47.63 277.733 47.3C277.733 47.09 277.823 46.925 278.003 46.805C278.213 46.655 278.393 46.58 278.543 46.58C278.873 46.58 279.158 46.625 279.398 46.715C279.638 46.775 279.968 46.805 280.388 46.805C281.648 46.805 282.593 46.1 283.223 44.69C283.883 43.28 284.213 41.42 284.213 39.11C284.213 36.35 283.763 34.355 282.863 33.125C281.963 31.895 280.703 31.28 279.083 31.28C278.243 31.28 277.598 31.475 277.148 31.865C276.728 32.225 276.518 32.795 276.518 33.575L276.473 54.5C276.473 55.46 276.728 56.15 277.238 56.57C277.748 56.96 278.633 57.29 279.893 57.56C280.223 57.62 280.463 57.725 280.613 57.875C280.793 57.995 280.883 58.19 280.883 58.46C280.883 58.67 280.808 58.835 280.658 58.955C280.508 59.075 280.298 59.135 280.028 59.135C279.368 59.135 278.603 59.105 277.733 59.045C276.893 59.015 276.053 58.985 275.213 58.955C274.373 58.925 273.653 58.91 273.053 58.91C272.423 58.91 271.733 58.925 270.983 58.955C270.233 58.985 269.453 59.015 268.643 59.045C267.863 59.105 267.143 59.135 266.483 59.135ZM313.527 59.63C311.457 59.63 309.477 59.285 307.587 58.595C305.727 57.875 304.062 56.87 302.592 55.58C301.152 54.26 300.012 52.7 299.172 50.9C298.362 49.07 297.957 47.045 297.957 44.825C297.957 42.785 298.287 40.835 298.947 38.975C299.637 37.085 300.657 35.405 302.007 33.935C303.357 32.465 305.022 31.295 307.002 30.425C309.012 29.555 311.322 29.12 313.932 29.12C316.032 29.12 318.012 29.48 319.872 30.2C321.762 30.89 323.427 31.895 324.867 33.215C326.307 34.505 327.447 36.065 328.287 37.895C329.127 39.695 329.547 41.705 329.547 43.925C329.547 45.935 329.202 47.885 328.512 49.775C327.822 51.665 326.802 53.345 325.452 54.815C324.102 56.285 322.422 57.455 320.412 58.325C318.432 59.195 316.137 59.63 313.527 59.63ZM314.337 57.56C316.047 57.56 317.472 57.08 318.612 56.12C319.782 55.16 320.652 53.825 321.222 52.115C321.792 50.405 322.077 48.44 322.077 46.22C322.077 44.39 321.897 42.59 321.537 40.82C321.207 39.02 320.667 37.4 319.917 35.96C319.197 34.52 318.267 33.38 317.127 32.54C315.987 31.67 314.637 31.235 313.077 31.235C311.397 31.235 309.972 31.715 308.802 32.675C307.662 33.635 306.807 34.955 306.237 36.635C305.667 38.315 305.382 40.265 305.382 42.485C305.382 44.345 305.562 46.175 305.922 47.975C306.282 49.745 306.822 51.35 307.542 52.79C308.262 54.23 309.177 55.385 310.287 56.255C311.427 57.125 312.777 57.56 314.337 57.56ZM336.962 59.135C336.722 59.135 336.512 59.09 336.332 59C336.152 58.88 336.062 58.715 336.062 58.505C336.062 58.025 336.377 57.71 337.007 57.56C338.147 57.32 338.942 57.02 339.392 56.66C339.842 56.27 340.067 55.595 340.067 54.635V34.205C340.067 33.245 339.872 32.57 339.482 32.18C339.092 31.76 338.297 31.415 337.097 31.145C336.467 30.995 336.152 30.68 336.152 30.2C336.152 29.99 336.242 29.825 336.422 29.705C336.602 29.585 336.812 29.525 337.052 29.525C337.742 29.525 338.462 29.54 339.212 29.57C339.992 29.6 340.742 29.645 341.462 29.705C342.212 29.735 342.902 29.75 343.532 29.75C344.132 29.75 344.807 29.735 345.557 29.705C346.337 29.675 347.117 29.645 347.897 29.615C348.707 29.585 349.442 29.57 350.102 29.57C350.372 29.57 350.582 29.63 350.732 29.75C350.882 29.84 350.957 29.99 350.957 30.2C350.957 30.5 350.867 30.71 350.687 30.83C350.537 30.95 350.297 31.055 349.967 31.145C348.767 31.475 347.972 31.85 347.582 32.27C347.192 32.66 346.997 33.32 346.997 34.25V54.59C346.997 55.46 347.207 56.105 347.627 56.525C348.077 56.915 348.887 57.26 350.057 57.56C350.357 57.65 350.582 57.755 350.732 57.875C350.912 57.995 351.002 58.19 351.002 58.46C351.002 58.67 350.927 58.835 350.777 58.955C350.657 59.075 350.462 59.135 350.192 59.135C349.532 59.135 348.797 59.105 347.987 59.045C347.177 59.015 346.382 58.985 345.602 58.955C344.822 58.925 344.132 58.91 343.532 58.91C342.902 58.91 342.212 58.925 341.462 58.955C340.712 58.985 339.947 59.015 339.167 59.045C338.387 59.105 337.652 59.135 336.962 59.135ZM386.833 59.855C386.443 59.855 385.813 59.615 384.943 59.135C384.073 58.685 383.173 57.875 382.243 56.705C381.523 55.955 380.773 55.145 379.993 54.275C379.213 53.405 378.388 52.505 377.518 51.575C376.648 50.645 375.763 49.7 374.863 48.74C373.993 47.78 373.123 46.835 372.253 45.905C371.383 44.945 370.513 44 369.643 43.07C368.773 42.14 367.948 41.24 367.168 40.37C366.388 39.5 365.638 38.69 364.918 37.94C364.858 37.82 364.753 37.715 364.603 37.625C364.483 37.505 364.393 37.445 364.333 37.445C364.213 37.445 364.123 37.55 364.063 37.76C364.033 37.97 364.018 38.15 364.018 38.3C363.988 39.68 363.988 41.3 364.018 43.16C364.048 45.02 364.078 46.91 364.108 48.83C364.168 50.72 364.198 52.445 364.198 54.005C364.198 54.965 364.498 55.73 365.098 56.3C365.698 56.84 366.583 57.26 367.753 57.56C368.083 57.62 368.368 57.725 368.608 57.875C368.878 57.995 369.013 58.19 369.013 58.46C369.013 58.67 368.893 58.835 368.653 58.955C368.413 59.075 368.158 59.135 367.888 59.135C367.078 59.135 366.418 59.105 365.908 59.045C365.398 59.015 364.918 59 364.468 59C364.048 58.97 363.523 58.955 362.893 58.955C362.233 58.955 361.603 58.97 361.003 59C360.433 59.03 359.938 59.06 359.518 59.09C359.128 59.12 358.858 59.135 358.708 59.135C358.498 59.135 358.258 59.09 357.988 59C357.748 58.88 357.628 58.715 357.628 58.505C357.628 58.235 357.748 58.04 357.988 57.92C358.228 57.8 358.498 57.68 358.798 57.56C359.518 57.29 360.058 56.84 360.418 56.21C360.808 55.58 361.033 54.8 361.093 53.87C361.213 52.76 361.333 51.29 361.453 49.46C361.603 47.63 361.738 45.575 361.858 43.295C361.978 40.985 362.038 38.6 362.038 36.14C362.038 34.58 361.633 33.455 360.823 32.765C360.043 32.075 359.083 31.52 357.943 31.1C357.703 31.04 357.433 30.935 357.133 30.785C356.833 30.605 356.683 30.38 356.683 30.11C356.683 29.84 356.803 29.66 357.043 29.57C357.283 29.45 357.553 29.39 357.853 29.39C358.393 29.39 358.993 29.405 359.653 29.435C360.343 29.465 361.063 29.495 361.813 29.525C362.563 29.525 363.343 29.54 364.153 29.57C364.963 29.6 365.773 29.615 366.583 29.615C366.823 29.615 367.003 29.66 367.123 29.75C367.273 29.84 367.408 29.96 367.528 30.11C368.188 30.86 368.893 31.67 369.643 32.54C370.423 33.41 371.233 34.325 372.073 35.285C372.913 36.215 373.768 37.175 374.638 38.165C375.508 39.125 376.363 40.1 377.203 41.09C378.073 42.08 378.913 43.04 379.723 43.97C380.563 44.9 381.373 45.8 382.153 46.67C382.933 47.54 383.653 48.35 384.313 49.1C384.403 49.22 384.508 49.355 384.628 49.505C384.778 49.625 384.913 49.685 385.033 49.685C385.273 49.685 385.393 49.46 385.393 49.01C385.393 48.08 385.393 47 385.393 45.77C385.423 44.54 385.438 43.235 385.438 41.855C385.438 40.475 385.423 39.11 385.393 37.76C385.393 36.41 385.363 35.165 385.303 34.025C385.273 33.215 384.958 32.615 384.358 32.225C383.788 31.805 382.993 31.46 381.973 31.19C381.643 31.13 381.358 31.025 381.118 30.875C380.878 30.725 380.758 30.515 380.758 30.245C380.758 30.035 380.878 29.885 381.118 29.795C381.358 29.675 381.613 29.615 381.883 29.615C382.573 29.615 383.158 29.63 383.638 29.66C384.118 29.66 384.553 29.66 384.943 29.66C385.333 29.66 385.768 29.66 386.248 29.66C386.848 29.66 387.358 29.66 387.778 29.66C388.198 29.63 388.648 29.6 389.128 29.57C389.638 29.54 390.283 29.525 391.063 29.525C391.423 29.525 391.693 29.585 391.873 29.705C392.083 29.825 392.188 29.99 392.188 30.2C392.188 30.65 391.798 30.95 391.018 31.1C389.968 31.31 389.218 31.61 388.768 32C388.318 32.39 388.078 33.02 388.048 33.89C388.048 34.97 388.033 36.125 388.003 37.355C388.003 38.585 387.973 39.845 387.913 41.135C387.853 42.425 387.793 43.715 387.733 45.005C387.703 46.265 387.673 47.48 387.643 48.65C387.613 49.82 387.598 50.9 387.598 51.89C387.598 52.58 387.643 53.345 387.733 54.185C387.823 54.995 387.898 55.745 387.958 56.435C388.048 57.095 388.093 57.56 388.093 57.83C388.093 58.58 387.973 59.105 387.733 59.405C387.523 59.705 387.223 59.855 386.833 59.855ZM406.39 59.135C406.18 59.135 405.955 59.09 405.715 59C405.475 58.88 405.355 58.715 405.355 58.505C405.355 58.235 405.46 58.025 405.67 57.875C405.88 57.725 406.135 57.62 406.435 57.56C407.575 57.32 408.4 57.005 408.91 56.615C409.45 56.225 409.72 55.55 409.72 54.59V36.005C409.72 34.835 409.69 33.98 409.63 33.44C409.57 32.87 409.48 32.495 409.36 32.315C409.27 32.105 409.15 31.97 409 31.91C408.73 31.76 408.37 31.685 407.92 31.685C407.5 31.655 407.155 31.64 406.885 31.64H405.895C404.935 31.64 404.02 31.88 403.15 32.36C402.31 32.81 401.635 33.38 401.125 34.07C400.975 34.28 400.75 34.58 400.45 34.97C400.18 35.33 399.88 35.66 399.55 35.96C399.25 36.23 398.95 36.365 398.65 36.365C398.41 36.365 398.245 36.29 398.155 36.14C398.065 35.96 398.02 35.765 398.02 35.555C398.02 35.195 398.11 34.82 398.29 34.43C398.86 33.29 399.28 32.315 399.55 31.505C399.82 30.695 400 29.765 400.09 28.715C400.15 28.265 400.285 27.965 400.495 27.815C400.705 27.635 400.945 27.545 401.215 27.545C401.425 27.545 401.65 27.74 401.89 28.13C402.13 28.52 402.385 28.835 402.655 29.075C402.955 29.315 403.45 29.495 404.14 29.615C404.86 29.735 405.445 29.795 405.895 29.795H422.815C423.565 29.795 424.195 29.72 424.705 29.57C425.245 29.42 425.65 29.27 425.92 29.12C426.4 28.85 426.775 28.55 427.045 28.22C427.345 27.89 427.69 27.725 428.08 27.725C428.26 27.725 428.38 27.8 428.44 27.95C428.53 28.07 428.575 28.25 428.575 28.49C428.575 28.61 428.56 28.76 428.53 28.94C428.53 29.12 428.515 29.285 428.485 29.435C428.335 30.005 428.185 30.56 428.035 31.1C427.885 31.61 427.765 32.105 427.675 32.585C427.585 33.065 427.54 33.56 427.54 34.07V34.97C427.54 35.45 427.48 35.84 427.36 36.14C427.27 36.44 427.075 36.59 426.775 36.59C426.505 36.59 426.28 36.455 426.1 36.185C425.92 35.885 425.725 35.42 425.515 34.79C425.185 33.71 424.69 32.915 424.03 32.405C423.4 31.895 422.425 31.64 421.105 31.64H418.765C418.255 31.64 417.835 31.76 417.505 32C417.205 32.21 416.98 32.66 416.83 33.35C416.68 34.01 416.605 35.03 416.605 36.41V54.545C416.605 55.445 416.845 56.105 417.325 56.525C417.835 56.915 418.675 57.26 419.845 57.56C420.145 57.65 420.4 57.755 420.61 57.875C420.82 57.995 420.925 58.19 420.925 58.46C420.925 58.67 420.835 58.835 420.655 58.955C420.475 59.075 420.25 59.135 419.98 59.135C419.32 59.135 418.57 59.105 417.73 59.045C416.92 59.015 416.095 58.985 415.255 58.955C414.445 58.925 413.74 58.91 413.14 58.91C412.51 58.91 411.79 58.925 410.98 58.955C410.2 58.985 409.405 59.015 408.595 59.045C407.815 59.105 407.08 59.135 406.39 59.135ZM161.215 118.225C160.825 118.225 160.51 118.165 160.27 118.045C160.03 117.955 159.91 117.82 159.91 117.64C159.91 117.43 160.03 117.25 160.27 117.1C160.54 116.92 160.915 116.755 161.395 116.605C162.175 116.365 162.895 116.005 163.555 115.525C164.215 115.045 164.785 114.25 165.265 113.14C166.105 111.22 166.87 109.42 167.56 107.74C168.28 106.06 168.955 104.41 169.585 102.79C170.215 101.17 170.86 99.49 171.52 97.75C172.21 95.98 172.93 94.06 173.68 91.99C173.83 91.57 173.965 91.15 174.085 90.73C174.205 90.31 174.28 89.86 174.31 89.38C174.58 89.29 174.85 89.2 175.12 89.11C175.39 89.02 175.66 88.885 175.93 88.705C176.2 88.525 176.38 88.255 176.47 87.895C176.59 87.535 176.695 87.295 176.785 87.175C176.815 87.145 176.845 87.13 176.875 87.13C176.935 87.13 176.98 87.16 177.01 87.22C177.07 87.34 177.115 87.49 177.145 87.67C177.205 87.85 177.265 88.03 177.325 88.21C178.045 90.49 178.795 92.815 179.575 95.185C180.355 97.555 181.105 99.85 181.825 102.07C182.575 104.26 183.25 106.24 183.85 108.01C184.48 109.75 184.975 111.16 185.335 112.24C185.755 113.44 186.205 114.34 186.685 114.94C187.165 115.54 187.66 115.96 188.17 116.2C188.71 116.44 189.28 116.62 189.88 116.74C190.39 116.83 190.765 116.98 191.005 117.19C191.245 117.37 191.365 117.565 191.365 117.775C191.365 117.955 191.245 118.075 191.005 118.135C190.765 118.195 190.45 118.225 190.06 118.225C189.64 118.225 189.07 118.195 188.35 118.135C187.63 118.105 186.865 118.06 186.055 118C185.245 117.97 184.495 117.955 183.805 117.955C183.235 117.955 182.65 117.955 182.05 117.955C181.45 117.955 180.895 117.97 180.385 118C179.875 118 179.44 118 179.08 118C178.69 118 178.375 117.955 178.135 117.865C177.895 117.775 177.775 117.64 177.775 117.46C177.775 117.25 177.925 117.07 178.225 116.92C178.525 116.77 178.87 116.665 179.26 116.605C180.25 116.455 180.955 116.2 181.375 115.84C181.795 115.48 182.005 115.06 182.005 114.58C182.005 114.13 181.9 113.485 181.69 112.645C181.51 111.775 181.285 110.86 181.015 109.9C180.745 108.91 180.49 108.04 180.25 107.29C180.19 107.05 180.07 106.915 179.89 106.885C179.74 106.825 179.455 106.795 179.035 106.795H170.53C170.41 106.795 170.275 106.855 170.125 106.975C170.005 107.065 169.885 107.275 169.765 107.605C169.675 107.905 169.525 108.385 169.315 109.045C169.105 109.675 168.895 110.35 168.685 111.07C168.475 111.79 168.295 112.435 168.145 113.005C167.995 113.575 167.92 113.935 167.92 114.085C167.92 114.745 168.175 115.3 168.685 115.75C169.195 116.17 169.81 116.47 170.53 116.65C171.52 116.92 172.015 117.22 172.015 117.55C172.015 117.73 171.895 117.865 171.655 117.955C171.415 118.015 171.1 118.045 170.71 118.045C170.32 118.045 169.75 118.03 169 118C168.25 117.97 167.455 117.955 166.615 117.955C165.625 117.955 164.665 118 163.735 118.09C162.805 118.18 161.965 118.225 161.215 118.225ZM171.745 105.31H178.72C179.14 105.31 179.35 105.235 179.35 105.085C179.35 105.025 179.335 104.965 179.305 104.905C179.305 104.815 179.29 104.725 179.26 104.635L175.75 93.655C175.57 93.115 175.435 92.845 175.345 92.845C175.285 92.845 175.165 93.1 174.985 93.61L170.89 104.635C170.83 104.815 170.8 104.935 170.8 104.995C170.8 105.145 170.875 105.235 171.025 105.265C171.205 105.295 171.445 105.31 171.745 105.31ZM212.352 118.315C212.052 118.315 211.377 118.285 210.327 118.225C209.307 118.165 208.122 118.105 206.772 118.045C205.452 118.015 204.192 118 202.992 118C202.392 118 201.882 118.015 201.462 118.045C201.072 118.075 200.637 118.105 200.157 118.135C199.707 118.195 199.077 118.225 198.267 118.225C197.877 118.225 197.562 118.18 197.322 118.09C197.082 118 196.962 117.85 196.962 117.64C196.962 117.4 197.082 117.25 197.322 117.19C197.562 117.1 197.937 117.01 198.447 116.92C199.587 116.71 200.367 116.365 200.787 115.885C201.237 115.405 201.462 114.625 201.462 113.545V93.295C201.462 92.215 201.237 91.45 200.787 91C200.367 90.55 199.587 90.22 198.447 90.01C197.937 89.92 197.562 89.83 197.322 89.74C197.082 89.62 196.962 89.44 196.962 89.2C196.962 88.99 197.082 88.84 197.322 88.75C197.562 88.66 197.877 88.615 198.267 88.615C199.047 88.615 199.662 88.63 200.112 88.66C200.592 88.66 201.057 88.675 201.507 88.705C201.957 88.705 202.542 88.705 203.262 88.705C203.742 88.705 204.342 88.69 205.062 88.66C205.812 88.63 206.577 88.585 207.357 88.525C208.167 88.465 208.887 88.42 209.517 88.39C210.177 88.36 210.657 88.345 210.957 88.345C214.017 88.345 216.627 88.72 218.787 89.47C220.947 90.19 222.702 91.21 224.052 92.53C225.402 93.82 226.392 95.335 227.022 97.075C227.682 98.785 228.012 100.63 228.012 102.61C228.012 104.77 227.607 106.795 226.797 108.685C225.987 110.575 224.862 112.255 223.422 113.725C221.982 115.165 220.317 116.29 218.427 117.1C216.537 117.91 214.512 118.315 212.352 118.315ZM211.812 116.74C214.152 116.74 216.222 116.17 218.022 115.03C219.822 113.89 221.217 112.315 222.207 110.305C223.227 108.295 223.737 105.985 223.737 103.375C223.737 101.215 223.377 99.295 222.657 97.615C221.937 95.905 220.977 94.48 219.777 93.34C218.577 92.17 217.227 91.285 215.727 90.685C214.227 90.055 212.712 89.74 211.182 89.74C209.892 89.74 208.782 89.785 207.852 89.875C206.952 89.935 206.262 90.16 205.782 90.55C205.302 90.94 205.062 91.585 205.062 92.485V112.555C205.062 113.755 205.392 114.655 206.052 115.255C206.712 115.855 207.552 116.26 208.572 116.47C209.622 116.65 210.702 116.74 211.812 116.74ZM246.811 118.54C246.571 118.54 246.406 118.435 246.316 118.225C246.196 117.895 246.046 117.46 245.866 116.92C245.686 116.35 245.521 115.87 245.371 115.48L237.136 93.385C236.836 92.545 236.431 91.84 235.921 91.27C235.411 90.7 234.766 90.31 233.986 90.1C233.506 89.95 233.131 89.8 232.861 89.65C232.621 89.5 232.501 89.32 232.501 89.11C232.501 88.93 232.621 88.81 232.861 88.75C233.101 88.66 233.416 88.615 233.806 88.615C234.286 88.615 234.811 88.63 235.381 88.66C235.981 88.69 236.611 88.72 237.271 88.75C237.931 88.75 238.606 88.75 239.296 88.75C239.896 88.75 240.481 88.75 241.051 88.75C241.651 88.72 242.191 88.705 242.671 88.705C243.181 88.675 243.586 88.66 243.886 88.66C244.276 88.66 244.591 88.705 244.831 88.795C245.071 88.855 245.191 88.975 245.191 89.155C245.191 89.365 245.071 89.56 244.831 89.74C244.591 89.89 244.216 89.995 243.706 90.055C242.866 90.145 242.161 90.34 241.591 90.64C241.051 90.91 240.781 91.3 240.781 91.81C240.781 92.32 240.841 92.77 240.961 93.16C241.111 93.52 241.216 93.805 241.276 94.015L247.756 111.115C247.816 111.235 247.891 111.31 247.981 111.34C248.071 111.37 248.161 111.28 248.251 111.07L254.416 94.87C255.016 93.28 255.046 92.125 254.506 91.405C253.996 90.655 253.261 90.22 252.301 90.1C251.851 90.04 251.491 89.935 251.221 89.785C250.951 89.605 250.816 89.41 250.816 89.2C250.816 89.02 250.936 88.9 251.176 88.84C251.416 88.75 251.731 88.705 252.121 88.705C252.511 88.705 252.946 88.705 253.426 88.705C253.906 88.705 254.401 88.72 254.911 88.75C255.451 88.75 256.006 88.75 256.576 88.75C257.446 88.75 258.376 88.735 259.366 88.705C260.356 88.645 261.136 88.615 261.706 88.615C262.096 88.615 262.411 88.66 262.651 88.75C262.891 88.81 263.011 88.93 263.011 89.11C263.011 89.32 262.891 89.5 262.651 89.65C262.411 89.77 262.036 89.89 261.526 90.01C260.416 90.25 259.486 90.76 258.736 91.54C257.986 92.32 257.446 93.115 257.116 93.925L248.656 114.445C248.596 114.595 248.476 114.91 248.296 115.39C248.146 115.84 247.981 116.335 247.801 116.875C247.621 117.415 247.441 117.865 247.261 118.225C247.231 118.315 247.171 118.39 247.081 118.45C246.991 118.51 246.901 118.54 246.811 118.54ZM269.395 118.225C269.005 118.225 268.69 118.18 268.45 118.09C268.21 118.03 268.09 117.91 268.09 117.73C268.09 117.37 268.585 117.1 269.575 116.92C270.715 116.71 271.585 116.365 272.185 115.885C272.785 115.405 273.085 114.64 273.085 113.59V93.25C273.085 92.2 272.86 91.45 272.41 91C271.99 90.55 271.21 90.22 270.07 90.01C269.08 89.83 268.585 89.53 268.585 89.11C268.585 88.93 268.705 88.81 268.945 88.75C269.185 88.66 269.5 88.615 269.89 88.615C270.7 88.615 271.36 88.63 271.87 88.66C272.41 88.69 272.92 88.72 273.4 88.75C273.88 88.75 274.465 88.75 275.155 88.75C275.815 88.75 276.355 88.75 276.775 88.75C277.195 88.72 277.645 88.69 278.125 88.66C278.605 88.63 279.25 88.615 280.06 88.615C280.45 88.615 280.765 88.66 281.005 88.75C281.245 88.81 281.365 88.93 281.365 89.11C281.365 89.32 281.245 89.5 281.005 89.65C280.765 89.8 280.39 89.92 279.88 90.01C278.77 90.22 277.96 90.55 277.45 91C276.94 91.45 276.685 92.2 276.685 93.25V113.59C276.685 114.64 277 115.405 277.63 115.885C278.26 116.365 279.13 116.71 280.24 116.92C280.75 117.01 281.125 117.115 281.365 117.235C281.605 117.355 281.725 117.52 281.725 117.73C281.725 117.91 281.605 118.03 281.365 118.09C281.125 118.18 280.81 118.225 280.42 118.225C279.61 118.225 278.935 118.195 278.395 118.135C277.885 118.105 277.39 118.075 276.91 118.045C276.43 118.015 275.845 118 275.155 118C274.405 118 273.745 118.015 273.175 118.045C272.635 118.075 272.065 118.105 271.465 118.135C270.895 118.195 270.205 118.225 269.395 118.225ZM296.208 118.72C294.948 118.72 293.778 118.525 292.698 118.135C291.648 117.775 290.703 117.25 289.863 116.56C289.743 116.44 289.623 116.305 289.503 116.155C289.413 116.005 289.338 115.84 289.278 115.66C289.128 115.06 289.023 114.28 288.963 113.32C288.933 112.36 288.888 111.565 288.828 110.935C288.828 110.725 288.918 110.575 289.098 110.485C289.278 110.365 289.488 110.305 289.728 110.305C289.878 110.305 290.028 110.35 290.178 110.44C290.328 110.5 290.418 110.62 290.448 110.8C291.048 113.11 291.933 114.76 293.103 115.75C294.303 116.74 295.548 117.235 296.838 117.235C297.888 117.235 298.818 117.01 299.628 116.56C300.438 116.11 301.068 115.48 301.518 114.67C301.998 113.83 302.238 112.855 302.238 111.745C302.238 110.515 302.028 109.525 301.608 108.775C301.218 107.995 300.648 107.32 299.898 106.75C299.148 106.18 298.233 105.565 297.153 104.905C295.983 104.155 294.828 103.405 293.688 102.655C292.548 101.875 291.603 100.99 290.853 100C290.103 98.98 289.728 97.75 289.728 96.31C289.728 94.78 290.073 93.4 290.763 92.17C291.453 90.94 292.488 89.965 293.868 89.245C295.278 88.495 297.033 88.12 299.133 88.12C300.213 88.12 301.143 88.24 301.923 88.48C302.733 88.69 303.378 88.9 303.858 89.11C304.098 89.2 304.293 89.35 304.443 89.56C304.623 89.77 304.743 89.995 304.803 90.235C304.983 90.865 305.178 91.585 305.388 92.395C305.598 93.205 305.703 93.97 305.703 94.69C305.703 95.02 305.478 95.185 305.028 95.185C304.758 95.185 304.488 95.125 304.218 95.005C303.978 94.885 303.828 94.735 303.768 94.555C303.138 92.965 302.403 91.75 301.563 90.91C300.723 90.07 299.658 89.65 298.368 89.65C297.468 89.65 296.628 89.815 295.848 90.145C295.068 90.475 294.423 91.015 293.913 91.765C293.433 92.515 293.193 93.52 293.193 94.78C293.193 95.68 293.478 96.505 294.048 97.255C294.648 97.975 295.428 98.665 296.388 99.325C297.348 99.985 298.383 100.66 299.493 101.35C300.543 101.98 301.563 102.67 302.553 103.42C303.573 104.17 304.398 105.07 305.028 106.12C305.688 107.14 306.018 108.4 306.018 109.9C306.018 111.67 305.613 113.23 304.803 114.58C303.993 115.9 302.853 116.92 301.383 117.64C299.913 118.36 298.188 118.72 296.208 118.72ZM329.411 118.63C327.431 118.63 325.541 118.285 323.741 117.595C321.941 116.875 320.351 115.87 318.971 114.58C317.591 113.26 316.496 111.7 315.686 109.9C314.876 108.07 314.471 106.045 314.471 103.825C314.471 101.785 314.801 99.835 315.461 97.975C316.121 96.085 317.096 94.405 318.386 92.935C319.676 91.465 321.281 90.295 323.201 89.425C325.121 88.555 327.326 88.12 329.816 88.12C331.796 88.12 333.686 88.48 335.486 89.2C337.286 89.89 338.876 90.895 340.256 92.215C341.636 93.505 342.731 95.065 343.541 96.895C344.351 98.695 344.756 100.705 344.756 102.925C344.756 104.935 344.426 106.885 343.766 108.775C343.106 110.665 342.131 112.345 340.841 113.815C339.551 115.285 337.946 116.455 336.026 117.325C334.106 118.195 331.901 118.63 329.411 118.63ZM330.086 116.83C332.396 116.83 334.316 116.35 335.846 115.39C337.376 114.4 338.516 113.035 339.266 111.295C340.046 109.525 340.436 107.47 340.436 105.13C340.436 103.06 340.196 101.11 339.716 99.28C339.236 97.45 338.516 95.845 337.556 94.465C336.626 93.055 335.456 91.96 334.046 91.18C332.636 90.4 330.986 90.01 329.096 90.01C326.846 90.01 324.956 90.49 323.426 91.45C321.896 92.41 320.741 93.76 319.961 95.5C319.181 97.21 318.791 99.235 318.791 101.575C318.791 103.675 319.016 105.64 319.466 107.47C319.946 109.3 320.651 110.92 321.581 112.33C322.541 113.74 323.726 114.85 325.136 115.66C326.546 116.44 328.196 116.83 330.086 116.83ZM379.933 118.945C379.093 118.945 378.298 118.87 377.548 118.72C376.798 118.6 376.108 118.36 375.478 118C374.848 117.64 374.263 117.145 373.723 116.515C373.003 115.615 372.313 114.76 371.653 113.95C370.993 113.11 370.288 112.15 369.538 111.07C368.818 109.99 367.933 108.61 366.883 106.93C366.433 106.18 365.788 105.595 364.948 105.175C364.288 104.845 363.628 104.62 362.968 104.5C362.338 104.35 361.813 104.26 361.393 104.23C361.153 104.2 360.973 104.275 360.853 104.455C360.763 104.635 360.718 104.86 360.718 105.13V113.05C360.718 114.01 360.943 114.85 361.393 115.57C361.843 116.26 362.623 116.71 363.733 116.92C364.243 117.01 364.618 117.115 364.858 117.235C365.098 117.355 365.218 117.52 365.218 117.73C365.218 117.91 365.098 118.03 364.858 118.09C364.618 118.18 364.303 118.225 363.913 118.225C363.103 118.225 362.473 118.195 362.023 118.135C361.603 118.075 361.213 118.03 360.853 118C360.523 117.94 360.073 117.91 359.503 117.91C358.753 117.91 358.078 117.94 357.478 118C356.908 118.03 356.323 118.075 355.723 118.135C355.153 118.195 354.463 118.225 353.653 118.225C353.263 118.225 352.948 118.18 352.708 118.09C352.468 118.03 352.348 117.91 352.348 117.73C352.348 117.37 352.843 117.1 353.833 116.92C354.973 116.71 355.798 116.365 356.308 115.885C356.848 115.405 357.118 114.61 357.118 113.5V94.33C357.118 93.19 357.058 92.335 356.938 91.765C356.848 91.165 356.608 90.745 356.218 90.505C355.858 90.265 355.243 90.1 354.373 90.01C353.863 89.95 353.488 89.845 353.248 89.695C353.008 89.515 352.888 89.32 352.888 89.11C352.888 88.93 353.008 88.81 353.248 88.75C353.488 88.66 353.803 88.615 354.193 88.615C355.003 88.615 355.603 88.615 355.993 88.615C356.413 88.615 356.803 88.63 357.163 88.66C357.523 88.66 358.003 88.66 358.603 88.66C359.173 88.66 359.683 88.645 360.133 88.615C360.583 88.555 361.078 88.51 361.618 88.48C362.188 88.45 362.908 88.435 363.778 88.435C367.078 88.435 369.583 89.05 371.293 90.28C373.033 91.51 373.903 93.355 373.903 95.815C373.903 97.165 373.633 98.335 373.093 99.325C372.553 100.285 371.878 101.095 371.068 101.755C370.258 102.415 369.433 102.955 368.593 103.375C368.473 103.405 368.413 103.48 368.413 103.6C368.443 103.69 368.503 103.81 368.593 103.96C369.523 105.37 370.408 106.705 371.248 107.965C372.118 109.225 373.063 110.455 374.083 111.655C375.103 112.855 376.318 114.1 377.728 115.39C378.508 116.08 379.303 116.5 380.113 116.65C380.923 116.8 381.853 116.875 382.903 116.875C383.353 116.875 383.578 117.04 383.578 117.37C383.578 117.82 383.353 118.15 382.903 118.36C382.453 118.6 381.943 118.75 381.373 118.81C380.803 118.9 380.323 118.945 379.933 118.945ZM363.103 103.195C364.483 103.195 365.668 102.88 366.658 102.25C367.678 101.62 368.458 100.795 368.998 99.775C369.568 98.755 369.853 97.675 369.853 96.535C369.853 95.305 369.688 94.18 369.358 93.16C369.058 92.14 368.428 91.33 367.468 90.73C366.538 90.1 365.128 89.785 363.238 89.785C362.278 89.785 361.648 90.1 361.348 90.73C361.048 91.33 360.868 92.41 360.808 93.97C360.778 94.72 360.748 95.74 360.718 97.03C360.718 98.29 360.718 99.82 360.718 101.62C360.718 102.37 360.928 102.82 361.348 102.97C361.768 103.12 362.353 103.195 363.103 103.195ZM392.434 118.225C392.044 118.225 391.729 118.18 391.489 118.09C391.249 118.03 391.129 117.91 391.129 117.73C391.129 117.52 391.249 117.355 391.489 117.235C391.729 117.115 392.104 117.01 392.614 116.92C393.754 116.71 394.624 116.305 395.224 115.705C395.824 115.075 396.124 114.22 396.124 113.14V106.48C396.124 105.88 395.959 105.235 395.629 104.545C395.329 103.825 395.119 103.36 394.999 103.15L389.734 94.51C389.524 94.15 389.194 93.655 388.744 93.025C388.294 92.365 387.799 91.75 387.259 91.18C386.749 90.61 386.239 90.25 385.729 90.1C385.249 89.95 384.874 89.8 384.604 89.65C384.364 89.5 384.244 89.32 384.244 89.11C384.244 88.93 384.364 88.81 384.604 88.75C384.844 88.66 385.159 88.615 385.549 88.615C386.239 88.615 387.034 88.645 387.934 88.705C388.834 88.735 389.794 88.75 390.814 88.75C391.504 88.75 392.149 88.735 392.749 88.705C393.379 88.675 393.934 88.66 394.414 88.66C394.804 88.66 395.119 88.705 395.359 88.795C395.599 88.855 395.719 88.975 395.719 89.155C395.719 89.365 395.599 89.545 395.359 89.695C395.119 89.815 394.744 89.935 394.234 90.055C393.814 90.175 393.469 90.31 393.199 90.46C392.929 90.61 392.794 90.85 392.794 91.18C392.794 91.57 392.989 92.11 393.379 92.8L397.519 100.45C398.119 101.59 398.539 102.16 398.779 102.16C398.959 102.16 399.154 102.04 399.364 101.8C399.574 101.53 399.874 101.08 400.264 100.45C400.954 99.4 401.569 98.395 402.109 97.435C402.649 96.475 403.294 95.32 404.044 93.97C404.344 93.46 404.554 93.025 404.674 92.665C404.794 92.275 404.854 91.945 404.854 91.675C404.854 91.105 404.644 90.715 404.224 90.505C403.834 90.295 403.429 90.16 403.009 90.1C402.709 90.04 402.379 89.935 402.019 89.785C401.689 89.605 401.524 89.41 401.524 89.2C401.524 89.02 401.644 88.9 401.884 88.84C402.124 88.75 402.439 88.705 402.829 88.705C403.519 88.705 404.089 88.72 404.539 88.75C404.989 88.75 405.544 88.75 406.204 88.75C407.134 88.75 408.019 88.735 408.859 88.705C409.699 88.645 410.374 88.615 410.884 88.615C411.274 88.615 411.589 88.66 411.829 88.75C412.069 88.81 412.189 88.93 412.189 89.11C412.189 89.32 411.949 89.515 411.469 89.695C410.989 89.875 410.434 90.055 409.804 90.235C409.024 90.445 408.364 90.88 407.824 91.54C407.314 92.17 406.654 93.1 405.844 94.33C405.244 95.26 404.734 96.04 404.314 96.67C403.924 97.3 403.549 97.885 403.189 98.425C402.859 98.965 402.514 99.535 402.154 100.135C401.794 100.705 401.359 101.41 400.849 102.25C400.459 102.88 400.189 103.39 400.039 103.78C399.889 104.17 399.799 104.545 399.769 104.905C399.739 105.235 399.724 105.7 399.724 106.3V113.14C399.724 114.16 400.039 115 400.669 115.66C401.299 116.29 402.169 116.71 403.279 116.92C403.789 117.01 404.164 117.115 404.404 117.235C404.644 117.355 404.764 117.52 404.764 117.73C404.764 117.91 404.644 118.03 404.404 118.09C404.164 118.18 403.849 118.225 403.459 118.225C402.649 118.225 401.974 118.195 401.434 118.135C400.924 118.105 400.429 118.075 399.949 118.045C399.469 118.015 398.884 118 398.194 118C397.444 118 396.784 118.015 396.214 118.045C395.674 118.075 395.104 118.105 394.504 118.135C393.934 118.195 393.244 118.225 392.434 118.225Z" fill="#F5F5F5"/>
<path d="M3 74.5C3 35.0116 35.0116 3 74.5 3C94.7207 3 112.982 11.3954 125.986 24.8877C126.37 25.2853 126.358 25.9185 125.961 26.3018C125.563 26.685 124.93 26.673 124.547 26.2754C111.904 13.1579 94.1555 5 74.5 5C36.1162 5 5 36.1162 5 74.5C5 112.884 36.1162 144 74.5 144C94.1555 144 111.904 135.842 124.547 122.725C124.93 122.327 125.563 122.315 125.961 122.698C126.358 123.082 126.37 123.715 125.986 124.112C112.982 137.605 94.7207 146 74.5 146C35.0116 146 3 113.988 3 74.5Z" fill="#F5F5F5" stroke="#F5F5F5" stroke-width="6" stroke-linecap="round"/>
</svg>
